<?xml version="1.0" encoding="utf-8"?>
<!-- Generator: Adobe Illustrator 24.2.0, SVG Export Plug-In . SVG Version: 6.00 Build 0)  -->
<svg version="1.1" id="Layer_1" xmlns="http://www.w3.org/2000/svg" xmlns:xlink="http://www.w3.org/1999/xlink" x="0px" y="0px"
	 viewBox="0 0 420 420" style="enable-background:new 0 0 420 420;" xml:space="preserve">
<style type="text/css">
	.st0{fill:#FF0040;}
	.st1{fill:#0BE8E6;}
	.st2{fill:#0B0038;}
</style>
<g>
	<path class="st0" d="M291.1,176.6l-95.4-95.4C151,36.5,78.3,36.4,33.6,81.2l0,0l0,0c-44.7,44.7-44.8,117.4,0,162.1l0,0l95.3,95.3
		c44.7,44.7,117.4,44.8,162.1,0l0,0l0,0C335.8,293.9,335.8,221.4,291.1,176.6L291.1,176.6z M230.8,278.3
		c-11.2,11.2-29.3,11.2-40.6,0c-11.2-11.2-11.2-29.3,0-40.6c11.2-11.2,29.3-11.2,40.6,0C241.9,249,241.9,267.2,230.8,278.3
		C230.8,278.4,230.8,278.4,230.8,278.3L230.8,278.3z"/>
	<path class="st1" d="M386.4,81.2L386.4,81.2c-44.7-44.7-117.4-44.8-162.1,0l0,0L129,176.6c-44.7,44.7-44.8,117.4,0,162.1l0,0l0,0
		c44.7,44.7,117.4,44.8,162.1,0l0,0l95.3-95.3C431.2,198.6,431.2,126.1,386.4,81.2L386.4,81.2z M230.8,278.4
		c-11.2,11.2-29.3,11.2-40.6,0c-11.2-11.2-11.2-29.3,0-40.6c11.2-11.2,29.3-11.2,40.6,0C241.9,249,241.9,267.2,230.8,278.4
		L230.8,278.4z"/>
	<path class="st2" d="M291.1,176.5L210,95.4l-81,81.1c-44.7,44.7-44.8,117.4,0,162.1l0,0l0,0c44.7,44.7,117.4,44.8,162.1,0l0,0l0,0
		C335.8,293.9,335.8,221.4,291.1,176.5L291.1,176.5z M230.8,278.3c-11.2,11.2-29.3,11.2-40.6,0c-11.2-11.2-11.2-29.3,0-40.6
		c11.2-11.2,29.3-11.2,40.6,0C241.9,249,241.9,267.2,230.8,278.3L230.8,278.3z"/>
</g>
</svg>
