<?xml version="1.0" encoding="UTF-8"?>
<svg width="80px" height="80px" viewBox="0 0 80 80" version="1.1" xmlns="http://www.w3.org/2000/svg" xmlns:xlink="http://www.w3.org/1999/xlink">
    <!-- Generator: Sketch 52.6 (67491) - http://www.bohemiancoding.com/sketch -->
    <title>apple</title>
    <desc>Created with Sketch.</desc>
    <g id="Homepage" stroke="none" stroke-width="1" fill="none" fill-rule="evenodd">
        <g id="Artboard-Copy-7" transform="translate(-1026.000000, -1414.000000)">
            <g id="apple" transform="translate(1026.000000, 1414.000000)">
                <rect id="Rectangle" fill="none" x="0" y="0" width="80" height="80"></rect>
                <path d="M18.4692159,29.3212767 C21.0727359,24.836498 25.7956959,22.0044817 30.7936959,21.9319817 C30.8433759,21.9312685 30.8940159,21.9303177 30.9446559,21.9303177 C33.0943359,21.9303177 35.1249759,22.7278177 36.9153759,23.4326128 C38.2550559,23.9591292 39.4120959,24.4131456 40.3036959,24.4131456 C41.0966559,24.4131456 42.2469759,23.9645964 43.5792159,23.4437849 C45.5085759,22.6907358 47.9095359,21.7529899 50.4163359,21.7529899 C50.7369759,21.7529899 51.0566559,21.7686784 51.3669759,21.7993423 C53.5008159,21.8903833 58.8024159,22.6450964 62.2608159,27.6582931 C62.3340159,27.7643095 62.3611359,27.8950472 62.3347359,28.0205554 C62.3095359,28.1467767 62.2336959,28.2563587 62.1249759,28.3260062 L62.0779359,28.3547685 C61.0730559,28.9713751 56.0620959,32.3679407 56.1266559,38.783121 C56.1950559,46.6803915 62.7895359,49.5773013 63.5414559,49.8818013 C63.5469759,49.883703 63.5695359,49.8929735 63.5760159,49.8958259 C63.7992159,49.998039 63.9088959,50.24858 63.8311359,50.4789161 L63.8143359,50.5309735 C63.4063359,51.8262276 62.1960159,55.2173259 59.7830559,58.7094489 C57.4711359,62.0549079 54.8498559,65.8463013 50.5814559,65.9252194 C48.5863359,65.9623013 47.2353759,65.3811128 45.9249759,64.8191784 C44.5946559,64.249162 43.2192159,63.6594161 41.0640159,63.6594161 C38.7979359,63.6594161 37.3533759,64.2686538 35.9572959,64.858162 C34.7133759,65.3827767 33.4260159,65.9261702 31.6456959,65.9958177 C31.5727359,65.9993833 31.5014559,66.0003341 31.4301759,66.0003341 C27.6398559,66.0003341 24.8733759,62.4868177 22.1404959,58.5720554 C16.6663359,50.7427685 13.5192159,37.8303997 18.4692159,29.3212767 Z M51.3708159,8.00033411 C51.6192159,7.99106362 51.8404959,8.17576034 51.8676159,8.42368657 C52.2192159,11.5927685 51.0585759,15.1314817 48.7636959,17.8883833 C46.5840159,20.4993341 43.3917759,22.1204817 40.4320959,22.1204817 C40.2249759,22.1204817 40.0156959,22.112162 39.8114559,22.0964735 C39.5853759,22.0798341 39.4027359,21.9079735 39.3736959,21.6850062 C38.8982559,18.128703 40.7001759,14.6013997 42.5443359,12.4851128 C44.7146559,9.96781772 48.3446559,8.12298985 51.3708159,8.00033411 Z" fill="#000000"></path>
            </g>
        </g>
    </g>
</svg>