<?xml version="1.0" encoding="UTF-8"?>
<svg width="80px" height="80px" viewBox="0 0 80 80" version="1.1" xmlns="http://www.w3.org/2000/svg" xmlns:xlink="http://www.w3.org/1999/xlink">
    <!-- Generator: Sketch 52.6 (67491) - http://www.bohemiancoding.com/sketch -->
    <title>netflix</title>
    <desc>Created with Sketch.</desc>
    <g id="Homepage" stroke="none" stroke-width="1" fill="none" fill-rule="evenodd">
        <g id="Artboard-Copy-7" transform="translate(-424.000000, -1414.000000)">
            <g id="netflix" transform="translate(424.000000, 1414.000000)">
                <rect id="Rectangle" fill="none" x="0" y="0" width="80" height="80"></rect>
                <path d="M53.8868391,65.9997434 C53.7140565,65.9966727 53.3656947,65.9662251 52.9820862,65.9184608 C50.6716379,65.6357204 47.6312237,65.3791707 45.1800323,65.2609158 C44.3696994,65.2214313 43.7001096,65.1819469 43.693446,65.1753992 C43.6799169,65.1623038 41.3026308,58.5590756 36.875988,46.2536186 L36.181305,44.3275736 L36.1811775,44.3942841 L36.1818182,44.3960437 L36.1701986,50.1666667 L36.1616368,54.6178359 C36.1479787,64.6421853 36.1412515,65.2011883 36.0262788,65.2011883 C35.6477248,65.2079352 32.3214644,65.4117322 31.2127109,65.5038079 C30.4892386,65.5629427 29.0355668,65.7078033 27.9810381,65.8195245 C26.9263055,65.9314441 26.0542248,66.0169714 26.0338395,65.9971275 C26.0134543,65.977482 26,54.7230086 26,40.9820933 L26,16 L26.0023737,16.0065446 L31.0160676,16 L36.0321352,16 L36.0989731,16.1841285 C36.1324929,16.2892881 36.9630185,18.5847432 37.9407489,21.3010351 C41.5770496,31.3898075 42.1798015,33.0670036 43.0840305,35.5727779 L43.8190959,37.6133408 L43.8589283,16 L53.9773768,16 L53.9976477,40.9722993 C54.0040658,54.0202258 53.9982916,64.8291271 53.9685689,65.9032453 L54,65.990882 C53.9928485,65.9979091 53.9548405,66.0007295 53.8929269,65.9998413 C53.8868885,65.9999473 53.8804997,66 53.8737701,66 C53.8783126,65.9999382 53.8826702,65.999853 53.8868391,65.9997434 Z" fill="#000000"></path>
            </g>
        </g>
    </g>
</svg>