<?xml version="1.0" encoding="UTF-8"?>
<svg width="80px" height="80px" viewBox="0 0 80 80" version="1.1" xmlns="http://www.w3.org/2000/svg" xmlns:xlink="http://www.w3.org/1999/xlink">
    <!-- Generator: Sketch 52.6 (67491) - http://www.bohemiancoding.com/sketch -->
    <title>pinterest</title>
    <desc>Created with Sketch.</desc>
    <g id="Homepage" stroke="none" stroke-width="1" fill="none" fill-rule="evenodd">
        <g id="Artboard-Copy-7" transform="translate(-1388.000000, -1414.000000)">
            <g id="pinterest" transform="translate(1388.000000, 1414.000000)">
                <rect id="Rectangle" fill="none" x="0" y="0" width="80" height="80"></rect>
                <path d="M40.0205364,16 C26.2026106,16 15,27.1842105 15,40.9794408 C15,51.5674342 21.5897709,60.6134868 30.8978223,64.2524671 C30.671299,62.2787829 30.4859616,59.2360197 30.9801945,57.0773026 C31.4332412,55.1241776 33.9044053,44.6595395 33.9044053,44.6595395 C33.9044053,44.6595395 33.1630561,43.1587171 33.1630561,40.9588816 C33.1630561,37.484375 35.1811734,34.8939145 37.6935236,34.8939145 C39.8351991,34.8939145 40.8648508,36.4975329 40.8648508,38.4095395 C40.8648508,40.5476974 39.5057106,43.7549342 38.7849544,46.7360197 C38.1877564,49.2236842 40.0411295,51.2590461 42.4917005,51.2590461 C46.9397959,51.2590461 50.3582396,46.5715461 50.3582396,39.828125 C50.3582396,33.8453947 46.0542954,29.671875 39.8969782,29.671875 C32.7717884,29.671875 28.5914025,34.9967105 28.5914025,40.5065789 C28.5914025,42.6447368 29.4151239,44.9473684 30.4447756,46.2014803 C30.6507059,46.4481908 30.671299,46.6743421 30.6095198,46.9210526 C30.4241825,47.7023026 29.9917288,49.4087171 29.9093567,49.7582237 C29.8063915,50.2105263 29.5386821,50.3133224 29.0650423,50.0871711 C25.9349011,48.6274671 23.9785629,44.0838816 23.9785629,40.4037829 C23.9785629,32.5296053 29.7034263,25.2927632 40.5147693,25.2927632 C49.1844366,25.2927632 55.9389518,31.4605263 55.9389518,39.7253289 C55.9389518,48.3396382 50.5023908,55.2680921 42.9653403,55.2680921 C40.4323971,55.2680921 38.0436052,53.9523026 37.2404768,52.3898026 C37.2404768,52.3898026 35.9843017,57.1595395 35.6754062,58.3314145 C35.1193943,60.5106908 33.5955098,63.2245066 32.5658581,64.8898026 C34.913464,65.609375 37.3846281,66 39.9793504,66 C53.7972762,66 64.9998868,54.8157895 64.9998868,41.0205592 C65.0410729,27.1842105 53.8384623,16 40.0205364,16 Z" fill="#000000"></path>
            </g>
        </g>
    </g>
</svg>