<?xml version="1.0" encoding="UTF-8"?>
<svg width="80px" height="80px" viewBox="0 0 80 80" version="1.1" xmlns="http://www.w3.org/2000/svg" xmlns:xlink="http://www.w3.org/1999/xlink">
    <!-- Generator: Sketch 52.6 (67491) - http://www.bohemiancoding.com/sketch -->
    <title>twitter</title>
    <desc>Created with Sketch.</desc>
    <g id="Homepage" stroke="none" stroke-width="1" fill="none" fill-rule="evenodd">
        <g id="Artboard-Copy-7" transform="translate(-906.000000, -1414.000000)">
            <g id="twitter" transform="translate(906.000000, 1414.000000)">
                <rect id="Rectangle" fill="none" x="0" y="0" width="80" height="80"></rect>
                <path d="M71,21.9192308 C68.694375,22.9230769 66.237625,23.5884615 63.67625,23.9115385 C66.31125,22.35 68.322375,19.8961538 69.267875,16.9384615 C66.811125,18.3923077 64.098625,19.4192308 61.207875,19.9923077 C58.875125,17.5269231 55.550375,16 51.923375,16 C44.886375,16 39.221125,21.6692308 39.221125,28.6192308 C39.221125,29.6192308 39.306375,30.5807692 39.515625,31.4961538 C28.9485,30.9846154 19.598125,25.9576923 13.31675,18.3 C12.220125,20.1884615 11.576875,22.35 11.576875,24.6769231 C11.576875,29.0461538 13.84375,32.9192308 17.22275,35.1615385 C15.180625,35.1230769 13.17725,34.5346154 11.48,33.6076923 C11.48,33.6461538 11.48,33.6961538 11.48,33.7461538 C11.48,39.8769231 15.885875,44.9692308 21.6635,46.1423077 C20.628875,46.4230769 19.50125,46.5576923 18.331,46.5576923 C17.51725,46.5576923 16.69575,46.5115385 15.924625,46.3423077 C17.5715,51.3384615 22.24475,55.0115385 27.8015,55.1307692 C23.477,58.4884615 17.986125,60.5115385 12.041875,60.5115385 C10.9995,60.5115385 9.99975,60.4653846 9,60.3384615 C14.630375,63.9423077 21.303125,66 28.499,66 C51.8885,66 64.676,46.7692308 64.676,30.1 C64.676,29.5423077 64.656625,29.0038462 64.6295,28.4692308 C67.152125,26.6923077 69.27175,24.4730769 71,21.9192308 Z" fill="#000000"></path>
            </g>
        </g>
    </g>
</svg>