<?xml version="1.0" encoding="utf-8"?>
<!-- Generator: Adobe Illustrator 24.0.1, SVG Export Plug-In . SVG Version: 6.00 Build 0)  -->
<svg version="1.1" id="Layer_1" xmlns="http://www.w3.org/2000/svg" xmlns:xlink="http://www.w3.org/1999/xlink" x="0px" y="0px"
	 viewBox="0 0 511.6 395.5" style="enable-background:new 0 0 511.6 395.5;" xml:space="preserve">
<style type="text/css">
	.st0{fill:#FF0040;}
	.st1{fill:#0BE8E6;}
	.st2{fill:#0B0038;}
</style>
<path class="st0" d="M354.6,157.1L238.4,40.9c-54.5-54.5-143-54.6-197.5,0c0,0,0,0,0,0l0,0c-54.5,54.5-54.6,143,0,197.5c0,0,0,0,0,0
	l116.1,116.1c54.5,54.5,143,54.6,197.5,0c0,0,0,0,0,0l0,0C409.1,300,409.1,211.6,354.6,157.1C354.6,157.1,354.6,157.1,354.6,157.1z
	 M281.1,281c-13.6,13.6-35.7,13.6-49.4,0c-13.6-13.6-13.6-35.7,0-49.4c13.6-13.6,35.7-13.6,49.4,0
	C294.7,245.3,294.7,267.4,281.1,281C281.1,281.1,281.1,281.1,281.1,281L281.1,281z"/>
<path class="st1" d="M470.7,40.9L470.7,40.9c-54.5-54.5-143-54.6-197.5,0c0,0,0,0,0,0L157.1,157.1c-54.5,54.5-54.6,143,0,197.5
	c0,0,0,0,0,0l0,0c54.5,54.5,143,54.6,197.5,0c0,0,0,0,0,0l116.1-116.1C525.3,183.9,525.3,95.5,470.7,40.9
	C470.7,40.9,470.7,40.9,470.7,40.9z M281.1,281.1c-13.6,13.6-35.7,13.6-49.4,0c-13.6-13.6-13.6-35.7,0-49.4
	c13.6-13.6,35.7-13.6,49.4,0C294.7,245.3,294.7,267.4,281.1,281.1C281.1,281.1,281.1,281.1,281.1,281.1z"/>
<path class="st2" d="M354.6,157l-98.8-98.8L157.1,157c-54.5,54.5-54.6,143,0,197.5c0,0,0,0,0,0l0,0c54.5,54.5,143,54.6,197.5,0
	c0,0,0,0,0,0l0,0C409.1,300,409.1,211.6,354.6,157C354.6,157,354.6,157,354.6,157z M281.1,281c-13.6,13.6-35.7,13.6-49.4,0
	c-13.6-13.6-13.6-35.7,0-49.4c13.6-13.6,35.7-13.6,49.4,0C294.7,245.3,294.7,267.4,281.1,281C281.1,281,281.1,281,281.1,281z"/>
</svg>
