<?xml version="1.0" encoding="UTF-8" standalone="no"?>
<svg
   xmlns:dc="http://purl.org/dc/elements/1.1/"
   xmlns:cc="http://creativecommons.org/ns#"
   xmlns:rdf="http://www.w3.org/1999/02/22-rdf-syntax-ns#"
   xmlns:svg="http://www.w3.org/2000/svg"
   xmlns="http://www.w3.org/2000/svg"
   xmlns:sodipodi="http://sodipodi.sourceforge.net/DTD/sodipodi-0.dtd"
   xmlns:inkscape="http://www.inkscape.org/namespaces/inkscape"
   version="1.1"
   id="Layer_1"
   x="0px"
   y="0px"
   viewBox="0 0 499.99999 500"
   xml:space="preserve"
   sodipodi:docname="favicon.svg"
   width="500"
   height="500"
   inkscape:export-filename="C:\Users\aqsd\Desktop\vscode\swach\resources\images\utils\favicon.png"
   inkscape:export-xdpi="6.1440001"
   inkscape:export-ydpi="6.1440001"
   inkscape:version="1.0 (4035a4fb49, 2020-05-01)"><metadata
   id="metadata38"><rdf:RDF><cc:Work
       rdf:about=""><dc:format>image/svg+xml</dc:format><dc:type
         rdf:resource="http://purl.org/dc/dcmitype/StillImage" /><dc:title></dc:title></cc:Work></rdf:RDF></metadata><defs
   id="defs36" /><sodipodi:namedview
   inkscape:document-rotation="0"
   pagecolor="#ffffff"
   bordercolor="#666666"
   borderopacity="1"
   objecttolerance="10"
   gridtolerance="10"
   guidetolerance="10"
   inkscape:pageopacity="0"
   inkscape:pageshadow="2"
   inkscape:window-width="1320"
   inkscape:window-height="773"
   id="namedview34"
   showgrid="false"
   inkscape:zoom="0.33790944"
   inkscape:cx="347.70064"
   inkscape:cy="228.58539"
   inkscape:window-x="0"
   inkscape:window-y="97"
   inkscape:window-maximized="0"
   inkscape:current-layer="Layer_1" />
<style
   type="text/css"
   id="style25">
	.st0{fill:#FF0040;}
	.st1{fill:#0BE8E6;}
	.st2{fill:#0B0038;}
</style>


<g
   id="g43"
   transform="matrix(0.97720665,0,0,0.97720665,-78.716249,-32.195566)"><path
     id="path27"
     d="m 435.16481,248.12778 -116.2,-116.2 c -54.5,-54.500002 -143,-54.600002 -197.5,0 0,0 0,0 0,0 v 0 c -54.499995,54.5 -54.599995,143 0,197.5 0,0 0,0 0,0 l 116.1,116.1 c 54.5,54.5 143,54.6 197.5,0 0,0 0,0 0,0 v 0 c 54.6,-54.5 54.6,-142.9 0.1,-197.4 0,0 0,0 0,0 z m -73.5,123.9 c -13.6,13.6 -35.7,13.6 -49.4,0 -13.6,-13.6 -13.6,-35.7 0,-49.4 13.6,-13.6 35.7,-13.6 49.4,0 13.6,13.7 13.6,35.8 0,49.4 0,0.1 0,0.1 0,0 z"
     class="st0" /><path
     id="path29"
     d="m 551.26481,131.92778 v 0 c -54.5,-54.500002 -143,-54.600002 -197.5,0 0,0 0,0 0,0 l -116.1,116.2 c -54.5,54.5 -54.6,143 0,197.5 0,0 0,0 0,0 v 0 c 54.5,54.5 143,54.6 197.5,0 0,0 0,0 0,0 l 116.1,-116.1 c 54.6,-54.6 54.6,-143 0,-197.6 0,0 0,0 0,0 z m -189.6,240.2 c -13.6,13.6 -35.7,13.6 -49.4,0 -13.6,-13.6 -13.6,-35.7 0,-49.4 13.6,-13.6 35.7,-13.6 49.4,0 13.6,13.6 13.6,35.7 0,49.4 0,0 0,0 0,0 z"
     class="st1" /><path
     id="path31"
     d="m 435.16481,248.02778 -98.8,-98.8 -98.7,98.8 c -54.5,54.5 -54.6,143 0,197.5 0,0 0,0 0,0 v 0 c 54.5,54.5 143,54.6 197.5,0 0,0 0,0 0,0 v 0 c 54.5,-54.5 54.5,-142.9 0,-197.5 0,0 0,0 0,0 z m -73.5,124 c -13.6,13.6 -35.7,13.6 -49.4,0 -13.6,-13.6 -13.6,-35.7 0,-49.4 13.6,-13.6 35.7,-13.6 49.4,0 13.6,13.7 13.6,35.8 0,49.4 0,0 0,0 0,0 z"
     class="st2" /></g>
</svg>
